<svg width="715" height="488" viewBox="0 0 715 488" fill="none" xmlns="http://www.w3.org/2000/svg">
<path d="M509 0C513.737 1.57911 517.982 3.35376 522.404 5.58838C523.478 6.1255 523.478 6.1255 524.575 6.67346C526.935 7.85404 529.292 9.04027 531.648 10.2266C533.305 11.0569 534.962 11.8868 536.62 12.7164C540.985 14.9029 545.348 17.0941 549.71 19.2864C554.096 21.4893 558.483 23.6879 562.871 25.8867C570.084 29.5023 577.296 33.1211 584.507 36.7424C588.163 38.5783 591.821 40.4114 595.482 42.2394C596.566 42.7808 596.566 42.7808 597.672 43.3332C599.029 44.0104 600.385 44.6871 601.742 45.3634C606.908 47.9419 612.028 50.6008 617.125 53.3125C618.69 54.1425 620.255 54.972 621.82 55.8008C622.483 56.1531 623.146 56.5054 623.829 56.8684C626.535 58.279 629.27 59.635 632 61C632 189.7 632 318.4 632 451C625.706 450.371 619.672 449.699 613.5 448.5C612.448 448.305 612.448 448.305 611.375 448.105C606.265 447.133 606.265 447.133 604 446C601.043 445.523 598.092 445.091 595.125 444.688C593.181 444.418 591.237 444.149 589.293 443.879C588.26 443.736 587.226 443.593 586.162 443.446C583.08 443.011 580.003 442.554 576.926 442.09C560.056 439.567 543.147 437.591 526.191 435.75C508.624 433.828 508.624 433.828 500 432C501.525 428.751 503.367 425.856 505.379 422.887C506.048 421.894 506.718 420.901 507.408 419.877C508.119 418.825 508.83 417.772 509.562 416.688C519.507 401.855 528.469 386.682 537 371C537.517 370.064 538.034 369.128 538.566 368.164C543.005 359.789 546.365 350.332 548 341C549.938 341.309 551.875 341.623 553.812 341.938C554.891 342.112 555.97 342.286 557.082 342.465C560 343 560 343 563 344C563 333.77 563 323.54 563 313C559.7 312.34 556.4 311.68 553 311C551.116 309.116 551.733 305.768 551.625 303.25C551.244 295.938 549.898 289.08 548 282C548.996 282.307 548.996 282.307 550.012 282.621C550.895 282.891 551.778 283.16 552.688 283.438C553.558 283.704 554.428 283.971 555.324 284.246C557.85 284.958 560.426 285.485 563 286C563 275.77 563 265.54 563 255C559.04 254.01 555.08 253.02 551 252C548.044 250.984 545.152 249.956 542.25 248.812C541.541 248.54 540.832 248.267 540.102 247.986C538.399 247.33 536.699 246.666 535 246C535 247.65 535 249.3 535 251C532.432 248.619 530.59 246.016 528.625 243.125C523.673 236.214 516.692 226.846 509 223C509 149.41 509 75.82 509 0Z" fill="#093767"/>
<path d="M501.641 235.078C516.256 247.487 526.561 263.876 532.09 282.114C532.714 284.868 532.714 284.868 534 286C538.362 305.481 537.91 322.597 532.589 341.808C532.119 343.558 531.722 345.328 531.352 347.102C529.278 356.807 523.792 365.423 519 374C518.333 375.201 518.333 375.201 517.653 376.427C502.51 403.579 484.241 429.178 463.875 452.657C461.332 455.596 458.874 458.597 456.437 461.625C452.329 466.69 447.963 471.471 443.531 476.25C440.601 479.434 437.784 482.689 435 486C430.858 482.768 427.445 479.356 424.043 475.36C422.088 473.102 420.077 470.905 418.044 468.717C413.339 463.648 408.831 458.48 404.496 453.086C402.613 450.758 400.711 448.456 398.785 446.164C390.357 436.111 382.49 425.769 375 415C374.557 414.364 374.114 413.728 373.658 413.073C366.254 402.366 359.587 391.222 353 380C352.567 379.271 352.135 378.542 351.689 377.79C341.696 360.905 332.398 340.989 332 321C331.971 320.018 331.971 320.018 331.942 319.016C331.696 309.792 331.771 301.006 334 292C334.245 290.878 334.49 289.755 334.742 288.598C340.907 262.603 356.787 239.932 379.242 225.351C418.566 201.12 466.299 207.265 501.641 235.078Z" fill="#083667"/>
<path d="M188 195C190.472 196.123 190.472 196.123 192.922 197.719C193.852 198.314 194.782 198.909 195.741 199.521C196.734 200.174 197.727 200.827 198.75 201.5C200.896 202.878 203.044 204.254 205.191 205.629C205.745 205.986 206.299 206.343 206.87 206.711C213.083 210.717 219.384 214.577 225.688 218.438C227.754 219.707 229.82 220.977 231.887 222.246C235.038 224.182 238.19 226.117 241.342 228.051C247.589 231.888 253.813 235.756 260 239.688C267.062 244.16 274.146 248.596 281.25 253C282.119 253.54 282.988 254.08 283.883 254.636C284.71 255.148 285.538 255.66 286.391 256.188C287.474 256.859 287.474 256.859 288.579 257.543C291.688 259.415 294.849 261.2 298 263C298 255.41 298 247.82 298 240C309.55 240 321.1 240 333 240C333 255.922 333 255.922 329.312 261.875C328.567 263.226 327.83 264.581 327.102 265.942C326.741 266.615 326.38 267.288 326.009 267.981C313.054 293.909 314.887 325.902 323.508 352.735C331.933 377.498 346.628 402.577 363.217 422.688C365 425 365 425 365 427C317.975 427.495 317.975 427.495 270 428C270.125 383.625 270.125 383.625 270.243 369.663C270.229 365.498 270.229 365.498 270.203 361.334C270.198 359.493 270.212 357.651 270.242 355.81C270.834 344.646 270.834 344.646 266.812 334.635C264.334 332.149 261.812 330.09 259 328C257.838 326.742 256.704 325.455 255.625 324.125C252.586 320.567 249.326 317.286 246 314C242.079 310.128 238.346 306.192 234.773 301.992C231.804 298.657 228.582 295.575 225.406 292.438C222.75 289.747 220.299 286.934 217.844 284.063C215.652 281.611 213.339 279.311 211 277C208.11 274.145 205.315 271.285 202.688 268.188C197.501 262.112 191.682 256.606 186 251C182.656 252.455 180.462 254.29 177.893 256.864C177.095 257.659 176.297 258.454 175.475 259.273C174.621 260.134 173.767 260.996 172.887 261.883C171.999 262.771 171.111 263.66 170.196 264.575C168.317 266.457 166.44 268.341 164.566 270.229C162.184 272.627 159.796 275.02 157.405 277.41C155.104 279.71 152.808 282.016 150.512 284.321C149.664 285.17 148.815 286.019 147.942 286.894C147.134 287.708 146.327 288.522 145.495 289.36C144.444 290.417 144.444 290.417 143.371 291.495C142.049 292.892 140.743 294.307 139.507 295.781C136.325 299.574 133.103 302.832 129.232 305.928C120.566 313.087 114.169 319.311 112.929 330.87C112.643 337.172 112.763 343.424 112.961 349.727C112.987 352.455 112.984 355.183 112.982 357.911C112.993 364.308 113.1 370.699 113.243 377.094C113.417 385.101 113.466 393.109 113.516 401.117C113.569 409.286 113.636 417.453 113.778 425.621C113.81 427.469 113.81 427.469 113.841 429.354C113.882 431.663 113.927 433.972 113.977 436.281C113.994 437.29 114.012 438.299 114.03 439.338C114.049 440.22 114.067 441.101 114.086 442.009C114 444 114 444 113 445C110.356 445.522 107.72 445.996 105.062 446.438C103.508 446.702 101.953 446.968 100.398 447.235C99.6427 447.364 98.887 447.494 98.1084 447.627C94.7155 448.228 91.3469 448.935 87.9805 449.668C86 450 86 450 82 450C82 408.09 82 366.18 82 323C69.79 323 57.58 323 45 323C49.0189 318.312 53.0065 313.832 57.375 309.5C57.9459 308.931 58.5168 308.362 59.105 307.776C62.6134 304.303 66.2111 300.998 69.9766 297.805C73.0948 295.024 75.9945 292.026 78.9275 289.053C82.194 285.759 85.5791 282.685 89.1055 279.676C91.8652 277.235 94.4121 274.597 96.9961 271.973C99.5825 269.427 102.315 267.08 105.066 264.715C107.532 262.529 109.819 260.194 112.126 257.843C113.929 256.07 115.786 254.413 117.703 252.766C121.992 249.036 126.128 245.162 130.25 241.25C142.209 229.949 154.262 218.714 166.73 207.973C168.567 206.376 170.374 204.756 172.176 203.121C173.325 202.101 174.475 201.082 175.625 200.063C176.164 199.565 176.702 199.068 177.257 198.555C180.997 195.283 183.102 194.52 188 195Z" fill="#FD5C04"/>
<path d="M318 49.9998C321.326 51.4042 324.496 53.0644 327.687 54.7498C336.366 59.2162 345.128 63.4313 354 67.4998C363.48 71.8575 372.851 76.3736 382.153 81.0972C389.255 84.6821 396.461 87.9896 403.746 91.1843C404.914 91.6982 404.914 91.6982 406.105 92.2224C406.787 92.519 407.47 92.8155 408.172 93.1211C410 93.9998 410 93.9998 413 95.9998C413.369 97.8232 413.369 97.8232 413.36 100.075C413.367 101.353 413.367 101.353 413.373 102.658C413.362 103.595 413.351 104.533 413.34 105.498C413.341 106.484 413.341 107.469 413.342 108.484C413.34 111.753 413.316 115.021 413.293 118.289C413.287 120.55 413.283 122.812 413.28 125.074C413.268 131.035 413.239 136.996 413.206 142.957C413.175 149.036 413.161 155.116 413.146 161.195C413.114 173.13 413.063 185.065 413 197C409.04 197.66 405.08 198.32 401 199C401 193.72 401 188.44 401 183C399.35 182.67 397.7 182.34 396 182C390.128 179.954 384.34 177.654 378.687 175.062C373.866 172.865 368.912 171.057 363.947 169.215C358.595 167.23 353.29 165.147 348 163C346.375 162.354 344.75 161.708 343.125 161.062C337.39 158.77 331.696 156.384 326 154C326 160.27 326 166.54 326 173C328.103 173.742 330.207 174.485 332.375 175.25C338.31 177.36 344.17 179.614 350 182C355.378 184.172 360.77 186.302 366.187 188.375C375.859 192.083 385.491 195.89 395 200C395 200.66 395 201.32 395 202C394.201 202.279 393.401 202.559 392.578 202.847C375.98 208.906 362.038 218.371 349.863 231.129C348.941 232.055 348.941 232.055 348 233C347.67 233 347.34 233 347 233C346.69 232.03 346.381 231.061 346.062 230.062C345.304 227.159 345.304 227.159 344 226C342.231 225.896 340.458 225.861 338.686 225.854C337.551 225.848 336.416 225.842 335.247 225.835C333.394 225.833 333.394 225.833 331.504 225.832C330.245 225.828 328.986 225.825 327.688 225.822C325.019 225.817 322.35 225.814 319.681 225.814C316.257 225.815 312.832 225.801 309.408 225.784C306.148 225.77 302.888 225.77 299.629 225.769C298.395 225.762 297.162 225.755 295.891 225.748C294.753 225.751 293.616 225.754 292.443 225.757C291.438 225.755 290.433 225.754 289.397 225.753C286.815 225.764 286.815 225.764 285 228C284.54 230.202 284.54 230.202 284.375 232.625C284.3 233.442 284.225 234.259 284.148 235.101C284.099 235.728 284.05 236.354 284 237C280.429 235.672 277.323 234.085 274.105 232.051C272.668 231.147 272.668 231.147 271.201 230.224C270.206 229.593 269.212 228.962 268.187 228.312C266.264 227.1 264.341 225.888 262.418 224.676C261.335 223.924 260.253 223.173 259.137 222.399C255.865 220.292 252.642 219.204 248.935 218.048C241.635 215.347 234.831 212.116 231 205C226.117 190.369 227.412 173.373 227.706 158.177C227.826 151.832 227.714 145.514 227.542 139.171C226.651 100.862 226.651 100.862 233.645 92.1811C239.489 86.3197 246.857 83.483 254.673 81.1046C259.708 79.4323 264.006 76.7714 268.5 73.9998C270.163 73.0473 271.829 72.1001 273.5 71.1599C291.266 61.0364 291.266 61.0364 308.653 50.2881C312.177 48.3537 314.142 48.9985 318 49.9998Z" fill="#E65306"/>
<path d="M470.001 259C484.147 268.467 493.716 282.655 497.376 299.313C499.995 317.866 497.073 336.199 485.784 351.667C476.436 363.46 462.608 372.882 447.634 375.727C441.431 376.371 435.223 376.183 429.001 376C427.931 375.982 426.861 375.964 425.759 375.946C409.347 375.206 396.725 366.571 385.614 355.082C373.641 341.531 369.038 323.746 370.001 306C372.353 286.466 382.825 271.071 398.001 259C405.425 253.975 413.391 251.303 422.001 249C422.654 248.806 423.308 248.611 423.981 248.41C440.186 245.119 456.316 250.68 470.001 259Z" fill="#FCFCFC"/>
<path d="M316 48.9999C315.34 49.6599 314.68 50.3199 314 50.9999C313.699 54.0959 313.699 54.0959 313.759 57.8081C313.757 58.8704 313.757 58.8704 313.754 59.9541C313.751 62.3388 313.762 64.7232 313.773 67.1078C313.773 68.8125 313.773 70.5172 313.772 72.2219C313.771 76.8601 313.783 81.4982 313.797 86.1364C313.809 90.9798 313.811 95.8231 313.813 100.666C313.819 109.843 313.836 119.019 313.856 128.195C313.878 138.64 313.889 149.085 313.899 159.53C313.92 181.02 313.956 202.51 314 224C323.57 224 333.14 224 343 224C343 224.33 343 224.66 343 225C342.303 225.008 341.605 225.016 340.887 225.024C334.324 225.102 327.762 225.19 321.199 225.287C317.825 225.337 314.451 225.384 311.076 225.422C307.199 225.467 303.322 225.525 299.445 225.586C297.623 225.603 297.623 225.603 295.764 225.621C294.083 225.651 294.083 225.651 292.367 225.681C290.882 225.701 290.882 225.701 289.366 225.721C286.812 225.774 286.812 225.774 285 228C284.54 230.202 284.54 230.202 284.375 232.625C284.3 233.442 284.225 234.259 284.148 235.101C284.099 235.728 284.05 236.354 284 237C280.429 235.672 277.323 234.085 274.105 232.051C272.668 231.147 272.668 231.147 271.201 230.224C270.206 229.593 269.212 228.962 268.187 228.312C266.264 227.1 264.341 225.888 262.418 224.676C261.335 223.924 260.253 223.173 259.137 222.399C255.865 220.292 252.642 219.204 248.935 218.048C241.635 215.347 234.831 212.117 231 205C226.117 190.369 227.412 173.373 227.706 158.177C227.826 151.832 227.714 145.514 227.542 139.171C226.651 100.862 226.651 100.862 233.645 92.1812C239.489 86.3199 246.857 83.4831 254.673 81.1047C259.708 79.4324 264.006 76.7716 268.5 73.9999C270.163 73.0475 271.829 72.1002 273.5 71.16C285.313 64.4093 297.189 57.5903 308.677 50.3009C311.341 48.8088 312.995 48.7423 316 48.9999Z" fill="#FC5D06"/>
<path d="M493 0C493 69.3 493 138.6 493 210C487 208 487 208 484.762 206.598C480.667 204.229 476.295 202.906 471.812 201.438C470.917 201.134 470.022 200.83 469.1 200.518C467.761 200.074 467.761 200.074 466.395 199.621C465.599 199.357 464.803 199.094 463.984 198.822C451.795 195.464 442.23 195.601 429 195C429 141.87 429 88.74 429 34C440.88 27.565 440.88 27.565 453 21C456.774 18.9375 460.549 16.875 464.438 14.75C471.213 11.0525 477.997 7.37345 484.812 3.75C485.889 3.17524 485.889 3.17524 486.988 2.58887C491.88 0 491.88 0 493 0Z" fill="#083666"/>
<path d="M320.912 438.66C327.244 438.385 333.575 438.179 339.911 438.037C343.367 437.958 346.817 437.853 350.27 437.678C373.093 436.61 373.093 436.61 379.439 442.362C382.388 445.67 384.71 449.248 386.889 453.098C388.301 455.515 390.008 457.528 391.895 459.59C392.394 460.165 392.894 460.741 393.408 461.334C393.872 461.863 394.335 462.392 394.812 462.937C400 468.867 400 468.867 400 470C398.752 470.008 397.505 470.016 396.219 470.024C320.695 470.52 245.322 471.242 169.9 475.462C162.312 475.883 154.722 476.259 147.129 476.601C146.119 476.647 145.109 476.692 144.068 476.739C140.264 476.91 136.459 477.078 132.654 477.241C130.152 477.348 127.65 477.459 125.148 477.57C124.434 477.599 123.719 477.628 122.982 477.658C118.974 477.839 115.045 478.242 111.07 478.77C107.259 479.194 103.432 479.253 99.6016 479.379C84.892 479.963 70.2506 481.382 55.5965 482.733C52.6339 483.005 49.671 483.273 46.708 483.541C31.1307 484.947 15.5585 486.397 0 488C2.15784 485.578 3.86318 484.471 6.94775 483.501C8.14102 483.119 8.14102 483.119 9.3584 482.73C10.6544 482.332 10.6544 482.332 11.9766 481.926C12.881 481.641 13.7854 481.356 14.7173 481.062C17.6829 480.134 20.6532 479.221 23.625 478.312C24.6441 477.999 25.6631 477.685 26.7131 477.362C71.8677 463.493 117.903 455.33 164.708 449.296C166.23 449.099 167.752 448.901 169.274 448.702C177.822 447.583 186.275 446.713 194.891 446.344C198.166 446.139 201.322 445.612 204.551 445.027C210.469 444.027 216.307 443.522 222.297 443.219C223.872 443.131 223.872 443.131 225.479 443.042C228.902 442.853 232.326 442.676 235.75 442.5C238.178 442.372 240.605 442.244 243.033 442.116C249.196 441.794 255.359 441.483 261.523 441.176C264.754 441.012 267.986 440.843 271.217 440.67C282.902 440.051 294.584 439.569 306.28 439.218C311.159 439.069 316.035 438.874 320.912 438.66Z" fill="#093768"/>
<path d="M505.732 444.711C508.92 445.117 512.102 445.201 515.312 445.313C526.446 445.946 537.479 447.758 548.506 449.353C553.518 450.077 558.532 450.784 563.547 451.492C567.24 452.015 570.932 452.539 574.625 453.063C575.498 453.186 576.372 453.31 577.272 453.437C582.36 454.159 587.447 454.891 592.532 455.638C594.164 455.877 595.796 456.115 597.429 456.352C609.432 458.101 621.198 460.456 633 463.25C634.715 463.652 636.431 464.055 638.146 464.457C643.101 465.624 648.051 466.81 653 468C654.008 468.241 654.008 468.241 655.035 468.486C675.308 473.33 695.676 479.097 715 487C711.169 488.366 707.665 487.742 703.742 487.18C702.182 486.973 700.622 486.768 699.062 486.563C698.222 486.451 697.381 486.339 696.515 486.224C672.793 483.09 648.991 481.335 625.134 479.613C624.43 479.562 623.725 479.511 622.999 479.458C619.669 479.218 616.339 478.981 613.009 478.748C608.082 478.399 603.167 478.048 598.261 477.468C593.511 476.91 588.765 476.694 583.988 476.5C582.592 476.439 582.592 476.439 581.168 476.377C578.216 476.248 575.264 476.124 572.312 476C568.433 475.836 564.555 475.669 560.676 475.5C559.256 475.438 559.256 475.438 557.807 475.375C552.961 475.157 548.129 474.885 543.293 474.5C531.884 473.629 520.433 473.392 509 473C479.278 471.98 479.278 471.98 468 471C471.728 465.86 475.624 461.027 479.969 456.391C482.089 454.035 482.089 454.035 483.656 451.172C489.31 441.971 496.167 443.376 505.732 444.711Z" fill="#0C396A"/>
<path d="M325 115C332.871 117.925 340.586 121.083 348.261 124.48C352.622 126.408 357.007 128.232 361.445 129.973C364.654 131.263 367.825 132.631 371 134C380.903 138.262 390.932 142.144 401 146C401 152.27 401 158.54 401 165C396.751 164.292 394.027 163.778 390.25 162.188C389.386 161.829 388.523 161.471 387.633 161.102C386.764 160.738 385.895 160.375 385 160C383.376 159.351 381.751 158.706 380.125 158.062C376.463 156.6 372.823 155.091 369.188 153.562C364.984 151.802 360.759 150.123 356.5 148.5C351.294 146.515 346.142 144.429 341.008 142.266C338.882 141.371 336.751 140.486 334.617 139.609C333.527 139.161 332.436 138.712 331.313 138.25C330.319 137.843 329.325 137.435 328.301 137.016C326 136 326 136 325 135C324.913 133.511 324.893 132.019 324.902 130.527C324.906 129.628 324.909 128.729 324.912 127.803C324.921 126.857 324.929 125.912 324.938 124.938C324.942 123.988 324.947 123.039 324.951 122.061C324.963 119.707 324.98 117.354 325 115Z" fill="#FDF8F6"/>
<path d="M325 77C335.116 80.3719 335.116 80.3719 339.547 82.4609C340.543 82.9262 341.538 83.3915 342.564 83.8708C344.141 84.6154 344.141 84.6154 345.75 85.375C348.049 86.448 350.348 87.5195 352.648 88.5898C353.844 89.1466 355.04 89.7033 356.272 90.2769C361.995 92.9298 367.747 95.5178 373.503 98.0982C375.32 98.9129 377.136 99.7296 378.952 100.546C386.255 103.817 393.602 106.952 401 110C401 116.27 401 122.54 401 129C396.422 127.692 392.436 126.459 388.125 124.625C387.179 124.225 386.233 123.826 385.258 123.414C382.847 122.368 380.443 121.309 378.043 120.238C372.101 117.591 366.132 115.005 360.163 112.419C358.201 111.568 356.24 110.717 354.279 109.865C347.438 106.898 340.582 103.973 333.677 101.156C330.733 99.8846 327.868 98.4342 325 97C325 90.4 325 83.8 325 77Z" fill="#FDF8F6"/>
<path d="M301 86C301 92.27 301 98.54 301 105C299.632 105.739 298.265 106.477 296.855 107.238C285.152 113.579 273.55 120.062 262.065 126.791C260.132 127.923 258.196 129.049 256.258 130.172C250.557 133.47 250.557 133.47 245 137C244.01 137 243.02 137 242 137C242 131.06 242 125.12 242 119C243.174 118.394 244.349 117.788 245.559 117.164C255.842 111.825 265.912 106.235 275.85 100.281C278.126 98.9252 280.411 97.5876 282.699 96.2539C283.471 95.8034 284.243 95.3529 285.039 94.8887C286.515 94.0278 287.991 93.1684 289.469 92.3105C292.208 90.7077 294.823 89.1339 297.355 87.2148C299 86 299 86 301 86Z" fill="#DB4E02"/>
<path d="M300 123C300 128.94 300 134.88 300 141C298.405 141.822 296.809 142.645 295.165 143.492C270.61 155.944 270.61 155.944 247.286 170.504C245 172 245 172 242 173C241.884 169.896 241.813 166.793 241.75 163.688C241.717 162.806 241.683 161.925 241.649 161.018C241.55 154.507 241.55 154.507 243.731 152.055C244.48 151.707 245.229 151.359 246 151C246.703 150.586 247.406 150.172 248.129 149.746C248.932 149.314 249.736 148.882 250.563 148.438C251.527 147.918 252.491 147.399 253.485 146.863C256.137 145.457 258.793 144.059 261.454 142.668C263.073 141.82 264.693 140.973 266.313 140.125C267.131 139.697 267.95 139.269 268.793 138.827C273.815 136.187 278.777 133.466 283.688 130.625C296.885 123 296.885 123 300 123Z" fill="#DA4C01"/>
<path d="M300 159C300 164.61 300 170.22 300 176C292.149 179.966 284.276 183.878 276.352 187.695C275.675 188.022 274.997 188.348 274.3 188.684C270.87 190.337 267.439 191.986 264.006 193.631C257.772 196.627 251.6 199.652 245.635 203.163C244 204 244 204 242 204C242 198.39 242 192.78 242 187C244.289 185.763 246.579 184.525 248.938 183.25C249.989 182.678 249.989 182.678 251.062 182.095C254.463 180.27 257.88 178.581 261.418 177.039C266.193 174.954 270.779 172.574 275.375 170.125C276.201 169.689 277.028 169.253 277.879 168.803C281.453 166.912 285.016 165.008 288.535 163.016C289.493 162.474 290.451 161.933 291.438 161.375C292.241 160.908 293.044 160.442 293.871 159.961C296 159 296 159 300 159Z" fill="#DC4D01"/>
<path d="M193 371C197.929 370.98 202.859 370.959 207.938 370.938C210.273 370.924 210.273 370.924 212.656 370.91C214.48 370.906 214.48 370.906 216.34 370.903C217.591 370.897 218.843 370.892 220.133 370.887C223 371 223 371 224 372C224.088 374.292 224.107 376.586 224.098 378.879C224.095 380.135 224.093 381.392 224.09 382.686C224.081 384.295 224.072 385.905 224.062 387.563C224.042 392.657 224.021 397.751 224 403C213.77 403 203.54 403 193 403C193 392.44 193 381.88 193 371Z" fill="#FC620E"/>
<path d="M153 371C157.929 370.98 162.859 370.959 167.938 370.938C170.273 370.924 170.273 370.924 172.656 370.91C174.48 370.906 174.48 370.906 176.34 370.903C177.591 370.897 178.843 370.892 180.133 370.887C183 371 183 371 184 372C184.088 374.292 184.107 376.586 184.098 378.879C184.095 380.135 184.093 381.392 184.09 382.686C184.081 384.295 184.072 385.905 184.062 387.563C184.042 392.657 184.021 397.751 184 403C173.77 403 163.54 403 153 403C153 392.44 153 381.88 153 371Z" fill="#FC620D"/>
<path d="M193 331C203.23 331 213.46 331 224 331C224.021 336.094 224.041 341.189 224.062 346.438C224.072 348.047 224.081 349.656 224.09 351.314C224.093 352.57 224.095 353.827 224.098 355.121C224.106 357.061 224.106 357.061 224.114 359.041C224 362 224 362 223 363C220.781 363.088 218.56 363.107 216.34 363.098C215.124 363.095 213.909 363.093 212.656 363.09C211.099 363.081 209.542 363.072 207.938 363.062C203.008 363.042 198.079 363.021 193 363C193 352.44 193 341.88 193 331Z" fill="#FC650F"/>
<path d="M153 331C163.23 331 173.46 331 184 331C184.021 336.094 184.041 341.189 184.062 346.438C184.072 348.047 184.081 349.656 184.09 351.314C184.093 352.57 184.095 353.827 184.098 355.121C184.106 357.061 184.106 357.061 184.114 359.041C184 362 184 362 183 363C180.781 363.088 178.56 363.107 176.34 363.098C175.124 363.095 173.909 363.093 172.656 363.09C171.099 363.081 169.542 363.072 167.938 363.062C163.008 363.042 158.079 363.021 153 363C153 352.44 153 341.88 153 331Z" fill="#FC640E"/>
<path d="M535 128C537.97 128.99 540.94 129.98 544 131C545.593 131.525 547.187 132.049 548.781 132.57C551.141 133.348 551.141 133.348 553.5 134.125C554.31 134.389 555.119 134.654 555.953 134.926C561.887 136.887 561.887 136.887 563 138C563.088 140.376 563.115 142.722 563.098 145.098C563.096 145.807 563.095 146.515 563.093 147.246C563.088 149.518 563.075 151.79 563.062 154.062C563.057 155.6 563.053 157.137 563.049 158.674C563.038 162.449 563.021 166.225 563 170C558.876 168.84 554.784 167.636 550.723 166.273C549.887 165.994 549.052 165.715 548.192 165.427C547.159 165.08 546.126 164.733 545.062 164.375C541.742 163.261 538.421 162.148 535 161C535 150.11 535 139.22 535 128Z" fill="#F6F7F9"/>
<path d="M535 188C539.619 188.66 543.033 189.179 547.277 190.629C548.113 190.911 548.948 191.192 549.808 191.483C550.841 191.839 551.874 192.195 552.938 192.562C556.258 193.697 559.579 194.831 563 196C563 206.56 563 217.12 563 228C551.75 225.75 551.75 225.75 548.086 224.492C547.38 224.254 546.674 224.015 545.947 223.769C545.098 223.474 544.249 223.179 543.375 222.875C540.611 221.926 537.848 220.978 535 220C535 209.44 535 198.88 535 188Z" fill="#F6F7F9"/>
<path d="M535 70C539.702 70.7837 543.45 71.7207 547.875 73.3125C549.027 73.7211 550.18 74.1298 551.367 74.5508C555.344 76.1374 559.17 78.0851 563 80C563 90.23 563 100.46 563 111C551.789 108.758 551.789 108.758 546.75 106.5C542.83 104.763 539.102 103.367 535 102C535 91.44 535 80.88 535 70Z" fill="#F6F7F9"/>
<path d="M582 261C586.924 261.703 590.001 262.197 594.375 263.938C599.324 265.904 603.585 266.797 609 268C609 278.56 609 289.12 609 300C602.114 298.748 595.862 297.538 589.312 295.375C586.899 294.591 584.486 293.808 582 293C582 282.44 582 271.88 582 261Z" fill="#F4F5F7"/>
<path d="M582 319C584.814 319.598 587.626 320.203 590.438 320.812C591.221 320.978 592.004 321.144 592.811 321.314C593.985 321.571 593.985 321.571 595.184 321.832C595.891 321.984 596.598 322.136 597.326 322.292C601.273 323.337 605.127 324.709 609 326C609 336.56 609 347.12 609 358C605.126 357.354 601.77 356.732 598.074 355.625C597.196 355.362 596.317 355.099 595.412 354.828C594.513 354.555 593.614 354.282 592.688 354C591.769 353.727 590.851 353.453 589.904 353.172C583.129 351.129 583.129 351.129 582 350C581.912 347.708 581.893 345.414 581.903 343.121C581.904 342.434 581.905 341.748 581.907 341.04C581.912 338.839 581.925 336.638 581.938 334.438C581.943 332.949 581.947 331.46 581.951 329.971C581.962 326.314 581.98 322.657 582 319Z" fill="#F4F6F8"/>
<path d="M582 145C591.751 147.167 599.701 150.28 609 154C609 164.56 609 175.12 609 186C600 183 591 180 582 177C582 166.44 582 155.88 582 145Z" fill="#F5F6F8"/>
<path d="M582 203C592.125 205.25 592.125 205.25 595.816 206.508C596.525 206.746 597.233 206.985 597.963 207.231C598.821 207.526 599.679 207.821 600.562 208.125C604.739 209.548 604.739 209.548 609 211C609 221.56 609 232.12 609 243C595.635 239.04 595.635 239.04 582 235C582 224.44 582 213.88 582 203Z" fill="#F5F6F8"/>
<path d="M582 88C586.094 88.6505 589.88 89.4912 593.813 90.8125C595.245 91.2862 595.245 91.2862 596.707 91.7695C600.879 93.3283 604.931 95.1914 609 97C609 107.23 609 117.46 609 128C595.424 124.606 595.424 124.606 589.313 122.375C588.133 121.95 586.954 121.524 585.738 121.086C583 120 583 120 582 119C581.912 116.708 581.893 114.414 581.903 112.121C581.904 111.434 581.905 110.748 581.907 110.04C581.912 107.839 581.925 105.638 581.938 103.438C581.943 101.949 581.947 100.46 581.951 98.9707C581.962 95.3138 581.98 91.6569 582 88Z" fill="#F5F6F8"/>
<path d="M300 194C300 197.3 300 200.6 300 204C291.964 207.348 291.964 207.348 288 206C287.67 204.02 287.34 202.04 287 200C288.789 198.995 290.581 197.996 292.375 197C293.373 196.443 294.37 195.886 295.398 195.312C298 194 298 194 300 194Z" fill="#E34D01"/>
<path d="M141 231C141.66 231.33 142.32 231.66 143 232C141.567 233.629 140.128 235.253 138.688 236.875C137.487 238.232 137.487 238.232 136.262 239.617C134 242 134 242 131 244C131 241 131 241 133.188 238.52C134.116 237.626 135.044 236.733 136 235.812C136.928 234.911 137.856 234.01 138.812 233.082C139.895 232.051 139.895 232.051 141 231ZM128 243C128.66 243.33 129.32 243.66 130 244C129.01 244.99 128.02 245.98 127 247C126.34 246.67 125.68 246.34 125 246C125.99 245.01 126.98 244.02 128 243Z" fill="#FC621D"/>
<path d="M559 137C560.32 137.33 561.64 137.66 563 138C563 148.56 563 159.12 563 170C562.34 169.67 561.68 169.34 561 169C561.33 159.43 561.66 149.86 562 140C561.01 140 560.02 140 559 140C559 139.01 559 138.02 559 137Z" fill="#ECEFF3"/>
<path d="M83 443C83.33 443.99 83.66 444.98 84 446C85.8473 446.692 85.8473 446.692 88 447C89.3333 447.333 90.6667 447.667 92 448C92 447.34 92 446.68 92 446C93.32 446.66 94.64 447.32 96 448C94.4177 448.338 92.8341 448.67 91.25 449C89.9274 449.278 89.9274 449.278 88.5781 449.562C86 450 86 450 82 450C81.9575 448 81.9592 446 82 444C82.33 443.67 82.66 443.34 83 443Z" fill="#F96318"/>
<path d="M333 240C333.081 242.27 333.139 244.541 333.188 246.812C333.222 248.077 333.257 249.342 333.293 250.645C333 254 333 254 331.488 255.949C330.997 256.296 330.506 256.643 330 257C330 255.68 330 254.36 330 253C330.66 253 331.32 253 332 253C331.67 251.02 331.34 249.04 331 247C330.67 247 330.34 247 330 247C330 245.02 330 243.04 330 241C332 240 332 240 333 240Z" fill="#FD681A"/>
<path d="M99 270C99.66 270.33 100.32 270.66 101 271C100.095 272.155 99.1756 273.299 98.25 274.438C97.7395 275.076 97.2291 275.714 96.7031 276.371C94.8033 278.188 93.5641 278.604 91 279C91.9573 277.874 92.9159 276.749 93.875 275.625C94.4087 274.999 94.9423 274.372 95.4922 273.727C96.6143 272.442 97.7937 271.206 99 270Z" fill="#FB6424"/>
<path d="M320 276C320.66 276.33 321.32 276.66 322 277C321.34 279.97 320.68 282.94 320 286C319.34 286 318.68 286 318 286C318.458 282.531 318.891 279.326 320 276Z" fill="#FB691F"/>
<path d="M289 258C291.64 258.33 294.28 258.66 297 259C297.33 260.32 297.66 261.64 298 263C294.225 261.909 291.53 261.092 289 258Z" fill="#FDE9DD"/>
<path d="M113 257C113.33 257.99 113.66 258.98 114 260C111.03 262.475 111.03 262.475 108 265C107.34 264.67 106.68 264.34 106 264C108.31 261.69 110.62 259.38 113 257Z" fill="#FC6523"/>
<path d="M270 247C273.375 248.186 275.647 249.276 278 252C273.483 252.366 273.483 252.366 271.188 250.625C270 249 270 249 270 247Z" fill="#FC671B"/>
<path d="M246 232C249.96 233.98 249.96 233.98 254 236C251 237 251 237 247.812 235.562C246.884 235.047 245.956 234.531 245 234C245.33 233.34 245.66 232.68 246 232Z" fill="#FB651C"/>
<path d="M367 212C368.32 212.33 369.64 212.66 371 213C368.69 214.65 366.38 216.3 364 218C364 215 364 215 365.25 213.25C365.827 212.838 366.405 212.425 367 212Z" fill="#E25217"/>
</svg>
